<svg width="512" height="512" viewBox="0 0 512 512" xmlns="http://www.w3.org/2000/svg">
  <defs>
    <linearGradient id="bgGrad" x1="0" y1="0" x2="0" y2="1">
      <stop offset="0%" stop-color="#3A3A3D"/>
      <stop offset="100%" stop-color="#1C1C1E"/>
    </linearGradient>
    <filter id="glowSoft" x="-60%" y="-60%" width="220%" height="220%">
      <feGaussianBlur stdDeviation="14"/>
    </filter>
    <filter id="glowTight" x="-60%" y="-60%" width="220%" height="220%">
      <feGaussianBlur stdDeviation="6"/>
    </filter>
  </defs>

  <!-- squircle background -->
  <rect x="6" y="6" width="500" height="500" rx="112" fill="url(#bgGrad)"/>
  <ellipse cx="256" cy="130" rx="170" ry="55" fill="#FFFFFF" opacity="0.10"/>
  <ellipse cx="256" cy="430" rx="200" ry="70" fill="#000000" opacity="0.10"/>

  <!-- vinyl record -->
  <circle cx="256" cy="256" r="160" fill="#EDEDED"/>
  <circle cx="256" cy="256" r="145" fill="none" stroke="#C4C4C4" stroke-width="2"/>
  <circle cx="256" cy="256" r="120" fill="none" stroke="#C4C4C4" stroke-width="2"/>
  <circle cx="256" cy="256" r="95" fill="none" stroke="#C4C4C4" stroke-width="2"/>
  <circle cx="256" cy="256" r="70" fill="none" stroke="#C4C4C4" stroke-width="2"/>
  <path d="M300,256 A44,44 0 1,0 212,256 A44,44 0 1,0 300,256 M264,256 A8,8 0 1,0 248,256 A8,8 0 1,0 264,256"
        fill-rule="evenodd" fill="#E8A33D"/>

  <!-- pencil glow -->
  <g transform="translate(256,256) rotate(-45) scale(1.45)" fill="#E8B93D">
    <path d="M0,-100 L-8,-85 L-14,-65 L-14,100 Q-14,108 -6,108 L6,108 Q14,108 14,100 L14,-65 L8,-85 Z"
          opacity="0.40" filter="url(#glowSoft)"/>
    <path d="M0,-100 L-8,-85 L-14,-65 L-14,100 Q-14,108 -6,108 L6,108 Q14,108 14,100 L14,-65 L8,-85 Z"
          opacity="0.55" filter="url(#glowTight)"/>
  </g>

  <!-- pencil shadow (depth) -->
  <g transform="translate(262,264) rotate(-45) scale(1.45)" fill="#1A1440" opacity="0.22">
    <path d="M0,-100 L-8,-85 L-14,-65 L-14,100 Q-14,108 -6,108 L6,108 Q14,108 14,100 L14,-65 L8,-85 Z"/>
  </g>

  <!-- pencil -->
  <g transform="translate(256,256) rotate(-45) scale(1.45)">
    <path d="M0,-100 L-8,-85 L8,-85 Z" fill="#2B2B2B"/>
    <path d="M-8,-85 L8,-85 L14,-65 L-14,-65 Z" fill="#E3B15C"/>
    <rect x="-14" y="-65" width="28" height="125" fill="#D4AF37"/>
    <rect x="-14" y="60" width="28" height="15" fill="#C7C7C7"/>
    <line x1="-14" y1="65" x2="14" y2="65" stroke="#9A9A9A" stroke-width="1.5"/>
    <line x1="-14" y1="70" x2="14" y2="70" stroke="#9A9A9A" stroke-width="1.5"/>
    <rect x="-14" y="75" width="28" height="25" rx="7" fill="#EE93A8"/>
  </g>

  <!-- music waveform -->
  <g>
    <rect x="116.6" y="452.0" width="9" height="12" rx="4" fill="#FFFFFF" opacity="0.85"/>
    <rect x="130.8" y="448.0" width="9" height="20" rx="4" fill="#FFFFFF" opacity="0.85"/>
    <rect x="145.0" y="442.0" width="9" height="32" rx="4" fill="#FFFFFF" opacity="0.85"/>
    <rect x="159.2" y="436.0" width="9" height="44" rx="4" fill="#FFFFFF" opacity="0.85"/>
    <rect x="173.4" y="439.0" width="9" height="38" rx="4" fill="#FFFFFF" opacity="0.85"/>
    <rect x="187.6" y="446.0" width="9" height="24" rx="4" fill="#FFFFFF" opacity="0.85"/>
    <rect x="201.8" y="450.0" width="9" height="16" rx="4" fill="#FFFFFF" opacity="0.85"/>
    <rect x="216.0" y="444.0" width="9" height="28" rx="4" fill="#FFFFFF" opacity="0.85"/>
    <rect x="230.2" y="438.0" width="9" height="40" rx="4" fill="#FFFFFF" opacity="0.85"/>
    <rect x="244.4" y="435.0" width="9" height="46" rx="4" fill="#FFFFFF" opacity="0.85"/>
    <rect x="258.6" y="437.0" width="9" height="42" rx="4" fill="#FFFFFF" opacity="0.85"/>
    <rect x="272.8" y="443.0" width="9" height="30" rx="4" fill="#FFFFFF" opacity="0.85"/>
    <rect x="287.0" y="449.0" width="9" height="18" rx="4" fill="#FFFFFF" opacity="0.85"/>
    <rect x="301.2" y="445.0" width="9" height="26" rx="4" fill="#FFFFFF" opacity="0.85"/>
    <rect x="315.4" y="439.0" width="9" height="38" rx="4" fill="#FFFFFF" opacity="0.85"/>
    <rect x="329.6" y="441.0" width="9" height="34" rx="4" fill="#FFFFFF" opacity="0.85"/>
    <rect x="343.8" y="448.0" width="9" height="20" rx="4" fill="#FFFFFF" opacity="0.85"/>
    <rect x="358.0" y="444.0" width="9" height="28" rx="4" fill="#FFFFFF" opacity="0.85"/>
    <rect x="372.2" y="438.0" width="9" height="40" rx="4" fill="#FFFFFF" opacity="0.85"/>
    <rect x="386.4" y="447.0" width="9" height="22" rx="4" fill="#FFFFFF" opacity="0.85"/>
  </g>
</svg>
